PathFileType	4	(X/Y/Z)	C:\Users\Biomechanik\SynologyDrive\AlexP\Athlete_03\Athlete_3_25_03_31\Walking_02\marker_experimental.trc
DataRate	CameraRate	NumFrames	NumMarkers	Units	OrigDataRate	OrigDataStartFrame	OrigNumFrames
200.000000	200.000000	4	53	mm	200.000000	369	493
Frame#	Time	GLAB			RFHD			LFHD			C7			T6			SPINMOL			SPINM2			SPINM3			T12			BELTOL			BELT2			BELT3			SACROL			SACR2			SACR3			LTHOL			LTH2			LTH3			LSHAOL			LSHA2			LSHA3			LHEE			LTOE			LM5			RTHOL			RTH2			RSHAOL			RSHA2			RSHA3			RHEE			RTOE			RM5			STRN			XIPH			LACR			LUAOL			LUA2			LUA3			LLAOL			LLA2			LLA3			LWRR			LWRU			RACR			RUAOL			RUA2			RUA3			RLAOL			RLA2			RLA3			RWRR			RWRU			RTH3			
		X1	Y1	Z1	X2	Y2	Z2	X3	Y3	Z3	X4	Y4	Z4	X5	Y5	Z5	X6	Y6	Z6	X7	Y7	Z7	X8	Y8	Z8	X9	Y9	Z9	X10	Y10	Z10	X11	Y11	Z11	X12	Y12	Z12	X13	Y13	Z13	X14	Y14	Z14	X15	Y15	Z15	X16	Y16	Z16	X17	Y17	Z17	X18	Y18	Z18	X19	Y19	Z19	X20	Y20	Z20	X21	Y21	Z21	X22	Y22	Z22	X23	Y23	Z23	X24	Y24	Z24	X25	Y25	Z25	X26	Y26	Z26	X27	Y27	Z27	X28	Y28	Z28	X29	Y29	Z29	X30	Y30	Z30	X31	Y31	Z31	X32	Y32	Z32	X33	Y33	Z33	X34	Y34	Z34	X35	Y35	Z35	X36	Y36	Z36	X37	Y37	Z37	X38	Y38	Z38	X39	Y39	Z39	X40	Y40	Z40	X41	Y41	Z41	X42	Y42	Z42	X43	Y43	Z43	X44	Y44	Z44	X45	Y45	Z45	X46	Y46	Z46	X47	Y47	Z47	X48	Y48	Z48	X49	Y49	Z49	X50	Y50	Z50	X51	Y51	Z51	X52	Y52	Z52	X53	Y53	Z53	

370	1.845	1901.572265625	1564.375122070313	241.0693969726566	1851.485107421875	1594.8408203125	304.2908935546878	1859.669311523438	1585.550048828125	166.164215087891	1674.146240234375	1407.186767578125	233.6481933593753	1615.885864257812	1239.978271484375	231.6115875244143	1609.240966796875	1199.483032226562	210.8455505371097	1601.068725585938	1192.464233398438	260.1423034667972	1612.548583984375	1135.675903320312	227.9158630371097	1638.783325195312	1068.265991210938	230.9185943603519	1604.023803710938	1031.429565429688	210.5610198974612	1599.969360351562	1030.3203125	260.7565917968753	1597.777099609375	969.3981323242189	232.5071105957034	1617.0185546875	924.8419189453126	206.1207427978518	1611.239501953125	925.1404418945314	257.2037048339847	1596.90087890625	866.2054443359376	230.3815460205081	1816.887084960938	644.6679687500001	62.41004180908237	1791.787841796875	573.7333984375001	86.18238830566439	1838.3876953125	589.4640502929689	76.80984497070347	1927.683227539062	309.1954956054689	76.38644409179723	1902.015502929688	235.5313110351564	90.5058212280277	1948.514770507812	251.2375488281251	84.73756408691442	1941.173095703125	56.64420700073254	172.7328491210941	2158.9921875	73.06720733642591	171.1867675781254	2119.55029296875	38.46506500244153	79.4029083251957	1615.424682617188	686.9473876953126	422.5712585449222	1651.454711914062	619.1005249023439	440.9089355468753	1474.118286132812	378.983612060547	411.8773193359378	1465.147216796875	300.9711914062501	408.077819824219	1432.535034179688	335.7483825683595	394.3135070800784	1297.537841796875	173.239730834961	283.8983459472659	1447.693969726562	42.50139999389657	282.3179016113284	1405.742797851562	45.32540130615243	389.5663146972659	1844.858520507812	1305.917724609375	240.8041687011722	1859.174072265625	1162.200561523438	247.3130950927738	1752.924926757812	1362.648681640625	61.30088424682649	1722.638427734375	1206.342895507812	-35.41224670410124	1699.414428710938	1146.576416015625	-51.79178619384734	1748.667114257812	1145.750732421875	-36.22977447509734	1701.191772460938	945.0068969726564	-80.98507690429656	1655.708129882812	883.8770751953126	-59.50082397460907	1699.447509765625	883.4920654296876	-83.51549530029266	1705.30859375	779.8922119140626	-91.45275878906219	1758.752075195312	772.5691528320314	-33.25732040405241	1752.79052734375	1365.276123046875	405.8411865234378	1754.196411132812	1223.033203125	509.3512878417972	1789.82177734375	1167.952392578125	520.3415527343753	1740.394165039062	1163.387451171875	533.7178344726566	1866.941528320312	971.5827026367189	560.7034301757816	1945.933959960938	968.9382324218751	569.4967651367191	1915.695068359375	933.6062622070314	551.5268554687503	1998.90380859375	898.1945800781251	543.2510986328128	2025.360107421875	925.3789672851564	471.0964355468754	1610.256103515625	625.6173706054689	413.8975524902347	
371	1.85	1908.723754882812	1564.737670898438	239.9156494140628	1858.568115234375	1595.187744140625	303.0821533203128	1866.92578125	1585.944946289063	164.9682312011722	1681.3837890625	1407.414916992188	232.1907196044925	1623.350708007812	1240.060546875	230.4765625000003	1616.737182617188	1199.552368164062	209.8100128173831	1608.601196289062	1192.6181640625	259.1270446777347	1620.099243164062	1135.782470703125	226.9900207519534	1646.3603515625	1068.475463867188	230.2066192626956	1611.990356445312	1031.843994140625	210.1065673828128	1608.058715820312	1030.634033203125	260.293884277344	1605.824096679688	969.7739257812501	231.9775695800784	1624.73779296875	924.8698730468751	205.6197052001956	1619.144897460938	924.8919677734376	256.7129516601565	1605.22021484375	865.9559326171876	229.6570281982425	1824.814331054688	645.6942138671876	61.57611083984408	1799.68408203125	574.5861816406251	84.79122161865267	1846.302001953125	590.4540405273439	75.76507568359409	1934.166259765625	310.0814208984376	75.26042938232457	1907.170166015625	236.8249969482423	88.59576416015661	1953.96142578125	251.8060607910157	83.86660003662145	1942.051635742188	57.51144027709973	172.5641937255863	2160.387939453125	69.555389404297	171.2511596679691	2120.10546875	36.08332824707044	79.27244567871132	1624.525756835938	685.9714355468751	421.8477478027347	1660.837158203125	618.4562988281251	440.7905273437503	1483.071166992188	380.316619873047	412.4936828613284	1472.803955078125	302.4610290527345	408.7001647949222	1440.8828125	337.7897338867189	394.6703796386722	1304.209716796875	178.6874084472657	284.1562194824221	1448.40234375	42.58409118652352	282.1741638183597	1407.046630859375	46.4061813354493	389.4586181640628	1852.235717773438	1306.48583984375	239.5668640136722	1866.848754882812	1162.803833007813	246.1874847412113	1760.393676757812	1362.69580078125	59.93534469604525	1730.704345703125	1206.102905273438	-36.50094604492156	1707.6748046875	1146.26025390625	-52.82764816284148	1756.90234375	1145.590698242188	-37.16602325439421	1709.956665039062	944.6979980468751	-81.75070953369109	1664.432006835938	883.5686035156251	-60.35049819946259	1708.258056640625	883.1881713867189	-84.244705200195	1714.182006835938	779.5931396484376	-92.07226562499969	1767.353393554688	772.2939453125001	-33.68140029907194	1759.962768554688	1365.716674804688	404.5570068359378	1760.901000976562	1223.270751953125	507.916900634766	1796.2578125	1167.991943359375	518.9293212890628	1746.79345703125	1163.6416015625	532.1755981445316	1872.034790039062	970.9517822265626	559.5213012695316	1950.94921875	967.6294555664064	568.8229370117191	1920.496948242188	932.5416259765626	550.6948242187503	2003.47412109375	896.4692993164064	543.0261230468753	2030.369750976562	922.9721679687501	470.8059997558598	1619.757934570312	624.7229003906251	413.4827270507815	
372	1.855	1915.863891601562	1565.164672851563	238.77262878418	1865.637329101562	1595.598022460938	301.8835449218753	1874.172485351562	1586.406494140625	163.7826690673832	1688.597412109375	1407.709106445312	230.7461700439456	1630.794677734375	1240.202514648438	229.3597717285159	1624.214965820312	1199.684814453125	208.79167175293	1616.1103515625	1192.83642578125	258.1282958984378	1627.6279296875	1135.951538085938	226.0832214355472	1653.915771484375	1068.755737304688	229.5123596191409	1619.884033203125	1032.392333984375	209.7007446289065	1616.0849609375	1031.082885742188	259.8833618164065	1613.79248046875	970.2835083007814	231.4953918457034	1632.435791015625	924.9739379882814	205.1406707763675	1627.0390625	924.7078857421876	256.2437133789065	1613.515625	865.7846069335939	228.9414520263675	1832.646606445312	646.7079467773439	60.72623825073276	1807.504516601562	575.4262695312501	83.38509368896517	1854.134643554688	591.4336547851564	74.70969390869175	1940.524780273438	310.9570922851564	74.16141510009801	1912.18701171875	238.1193695068361	86.63989257812536	1959.27197265625	252.3775787353517	83.02577209472692	1942.86767578125	58.37033462524426	172.4061889648441	2161.623779296875	66.3384933471681	171.3753509521488	2120.5693359375	34.03687286376966	79.12123870849648	1633.785522460938	684.9154663085939	421.144958496094	1670.433227539062	617.7734985351564	440.7229614257815	1492.421875	381.649383544922	413.1428833007815	1480.854125976562	303.9719848632814	409.3567199707034	1449.651000976562	339.8424377441407	395.0340576171878	1311.454345703125	184.3081665039063	284.3460388183596	1449.350708007812	42.79710769653329	282.0299377441409	1408.479858398438	47.73902130126962	389.3044738769534	1859.589233398438	1307.143432617188	238.3355255126957	1874.49951171875	1163.488891601563	245.0653991699222	1767.85009765625	1362.8447265625	58.5887031555179	1738.802978515625	1205.973999023438	-37.58581924438445	1715.983520507812	1146.052368164062	-53.86695480346648	1765.17724609375	1145.545166015625	-38.08773040771452	1718.804565429688	944.5028686523439	-82.51023101806609	1673.250122070312	883.3612060546876	-61.20637512207001	1717.168823242188	882.9960937500001	-84.97062683105437	1723.185180664062	779.4087524414064	-92.69074249267547	1776.056640625	772.1373291015626	-34.09205245971647	1767.117797851562	1366.261108398438	403.2782592773441	1767.581787109375	1223.60791015625	506.4930419921878	1802.661865234375	1168.130981445312	517.5154418945316	1753.161865234375	1163.99658203125	530.6348876953128	1877.017822265625	970.3857421875001	558.3329467773441	1955.84130859375	966.3439331054689	568.1607666015628	1925.161376953125	931.5142822265626	549.8698730468753	2007.880737304688	894.7381591796876	542.8345947265628	2035.232421875	920.5105590820314	470.5485229492191	1629.472778320312	623.7482299804689	413.1243591308597	
373	1.86	1922.989135742188	1565.646362304688	237.6425628662113	1872.689453125	1596.063232421875	300.6972045898441	1881.405029296875	1586.924194335938	162.6096191406253	1695.780639648438	1408.060546875	229.3197631835941	1638.2119140625	1240.398559570312	228.2622528076175	1631.6689453125	1199.874389648438	207.7897949218753	1623.59033203125	1193.111328125	257.1451110839847	1635.130859375	1136.176513671875	225.1927490234378	1661.449340820312	1069.09716796875	228.82682800293	1627.693603515625	1033.057373046875	209.3316802978519	1624.034912109375	1031.65087890625	259.5130920410159	1621.672607421875	970.9108276367189	231.0496368408206	1640.105712890625	925.1452636718751	204.6789550781253	1634.91357421875	924.5833129882814	255.7907867431644	1621.774536132812	865.6860961914064	228.2341613769534	1840.40478515625	647.6893920898439	59.86040115356479	1815.252319335938	576.2365112304689	81.95854187011751	1861.894287109375	592.3809204101564	73.65087890625034	1946.715576171875	311.7864074707032	73.12775421142614	1917.042846679688	239.3798980712892	84.74010467529332	1964.417358398438	252.9185791015626	82.24652862548864	1943.630493164062	59.20896148681653	172.2723236083988	2162.716064453125	63.40901565551771	171.5740509033207	2120.95556640625	32.321014404297	78.96183013916054	1643.19677734375	683.7794799804689	420.4745788574222	1680.235473632812	617.0527343750001	440.7135925292972	1502.171508789062	382.9750061035157	413.8237609863284	1489.30126953125	305.4964904785157	410.0428466796878	1458.842163085938	341.8973083496095	395.4047851562503	1319.274291992188	190.0884399414063	284.465026855469	1450.574951171875	43.16374206542978	281.8924255371097	1410.069580078125	49.36122131347665	389.1037292480472	1866.915283203125	1307.878540039063	237.116622924805	1882.12109375	1164.244262695313	243.9541015625003	1775.291015625	1363.090209960938	57.26756668090853	1746.9306640625	1205.95458984375	-38.6655693054196	1724.33642578125	1145.951171875	-54.90921401977507	1773.487182617188	1145.611572265625	-38.99330139160124	1727.730346679688	944.4204711914064	-83.26457214355437	1682.159912109375	883.2512817382814	-62.06887435913055	1726.177124023438	882.9146728515626	-85.69470214843719	1732.3193359375	779.3383789062501	-93.31016540527312	1784.863525390625	772.1013183593751	-34.49145889282194	1774.251220703125	1366.901733398438	402.0083312988285	1774.237182617188	1224.040283203125	505.0859985351566	1809.033447265625	1168.365234375	516.1058959960941	1759.499389648438	1164.44775390625	529.1028442382816	1881.89501953125	969.8850097656251	557.1430664062503	1960.61376953125	965.0851440429689	567.5135498046878	1929.693359375	930.5273437500001	549.0541381835941	2012.127319335938	893.0067138671876	542.6771240234378	2039.948974609375	918.0014038085939	470.3252563476566	1639.39208984375	622.6902465820314	412.8337097167972	
